<svg xmlns="http://www.w3.org/2000/svg" viewBox="0 0 1200 630" role="img" aria-label="Capa de compartilhamento Upgestor">
  <defs>
    <linearGradient id="bg" x1="0" x2="1" y1="0" y2="1">
      <stop offset="0%" stop-color="#081426"/>
      <stop offset="58%" stop-color="#18498f"/>
      <stop offset="100%" stop-color="#18a86b"/>
    </linearGradient>
    <linearGradient id="panel" x1="0" x2="1" y1="0" y2="1">
      <stop offset="0%" stop-color="rgba(255,255,255,0.18)"/>
      <stop offset="100%" stop-color="rgba(255,255,255,0.06)"/>
    </linearGradient>
  </defs>
  <rect width="1200" height="630" fill="url(#bg)"/>
  <circle cx="1010" cy="60" r="220" fill="rgba(255,255,255,0.08)"/>
  <circle cx="140" cy="580" r="210" fill="rgba(255,255,255,0.08)"/>
  <rect x="72" y="88" width="1056" height="454" rx="36" fill="url(#panel)" stroke="rgba(255,255,255,0.12)"/>
  <g fill="#ffffff">
    <rect x="114" y="132" width="76" height="76" rx="18" fill="#ffffff"/>
    <text x="152" y="184" font-family="Manrope, Arial, sans-serif" font-size="46" font-weight="800" text-anchor="middle" fill="#18498f">U</text>
    <text x="212" y="184" font-family="Manrope, Arial, sans-serif" font-size="56" font-weight="800">Upgestor</text>
    <text x="114" y="286" font-family="Manrope, Arial, sans-serif" font-size="58" font-weight="800">Sistema personalizado + site profissional</text>
    <text x="114" y="352" font-family="Manrope, Arial, sans-serif" font-size="36" font-weight="500">Organize sua empresa com mais controle, clareza e autoridade</text>
    <text x="114" y="466" font-family="Manrope, Arial, sans-serif" font-size="30" font-weight="600" opacity="0.95">Para clinicas, lojas, escritorios e prestadores de servico</text>
  </g>
  <g transform="translate(790 164)">
    <rect width="250" height="210" rx="28" fill="rgba(255,255,255,0.12)" stroke="rgba(255,255,255,0.14)"/>
    <rect x="24" y="26" width="120" height="56" rx="18" fill="rgba(255,255,255,0.92)"/>
    <text x="40" y="50" font-family="Manrope, Arial, sans-serif" font-size="14" font-weight="700" fill="#5d6e86">Controle do mes</text>
    <text x="40" y="72" font-family="Manrope, Arial, sans-serif" font-size="24" font-weight="800" fill="#10233f">R$ 18.420</text>
    <rect x="24" y="104" width="202" height="26" rx="13" fill="rgba(255,255,255,0.28)"/>
    <rect x="24" y="142" width="168" height="26" rx="13" fill="rgba(255,255,255,0.2)"/>
    <rect x="24" y="180" width="136" height="14" rx="7" fill="rgba(255,255,255,0.18)"/>
  </g>
</svg>
